<svg xmlns="http://www.w3.org/2000/svg" xmlns:xlink="http://www.w3.org/1999/xlink" version="1.1" x="0px" y="0px" viewBox="0 0 100 125" style="enable-background:new 0 0 100 100;" xml:space="preserve"><path d="M56.4,30c0,0-14,9.4-14.2,13.1c-0.2,3.7,2.6,6.5,7.5,9.3c0,0-3.5,1.6-6.4,1.2c-3-0.3-5.4-0.7-5.4-0.7S35.6,60,39,62.8  c0,0,0.6-0.7,0.4-2.4c-0.2-1.7,2.3-3.8,4.7-4c2.4-0.2,10.6,2.6,12.8,0.8c2.1-1.7,0.7-6.7-7.1-13.5c4.5,0.1,11.4-1.2,16.1-6.4  c2,0.2,3.3-0.4,3.3-0.4l0.9,0.4l0.4-2.2c0,0,2.3-1.2,1.8-3.4s-2.4-4.5-5.6-2.4c-1.4,1.3-1.9,2.3-1.9,2.3L63,31.1  c0,0-0.4-2.6-1.5-3.9c-1.1-1.2-8.8-5-8.8-5s-6.3-0.5-8.9,1.3c-1.4-0.3-5.9,1.2-5.8,2.7c0.1,1.6,0.3,2.3,0.3,2.3s2-2.1,3.7-1.9  c-0.1,0.7-0.7,1.6-0.7,1.6l0.7,0.3c0,0,1.5-1.5,1.7-3.1c2.9-0.6,7.1-0.7,8.4-0.1C54.2,27.9,56.4,30,56.4,30z"/><path d="M41.5,44.2c0,0,0.9,5,4.4,7c-1,2.1-1,2.1-1,2.1l-6.3-1.2C38.6,52.1,41.9,46.8,41.5,44.2z"/><path d="M37.1,61.5c0,0-6.5,5-6.9,7.3c-0.4,2.3-0.4,4,1.5,4.7c0.2,0.8,0.2,0.8,0.2,0.8l-2.7,0.2c0,0-3.4-3.9-4.5-6  c0,0,3.1-2.1,4.2-3.1c1.2-1,3.5-5,5-6.3c1.5-1.2,2.6-2.1,2.6-2.1S36.3,59.9,37.1,61.5z"/><path d="M66.3,37.9L64.9,39c0,0,5.5,1.9,10.3,0.9c1.6-4.2,3.2-8.6,2.6-10.4s-1.7-4-2.7-4.2c-2,0.5-2,0.5-2,0.5s1.7,2.4,1.7,3.2  c-1.2-0.2-2.3-0.2-2.3-0.2l-0.2,0.7c0,0,2.6,0.7,2.9,1.2c0,1.2-0.9,4.5-2.4,6.2c-1.7-0.5-2-0.8-2-0.8l-0.4,1.6l-1.2-0.4  C69.1,37.3,67.3,38.1,66.3,37.9z"/><text x="0" y="115" fill="#000000" font-size="5px" font-weight="bold" font-family="'Helvetica Neue', Helvetica, Arial-Unicode, Arial, Sans-serif">Created by Abraham</text><text x="0" y="120" fill="#000000" font-size="5px" font-weight="bold" font-family="'Helvetica Neue', Helvetica, Arial-Unicode, Arial, Sans-serif">from the Noun Project</text></svg>