<svg xmlns="http://www.w3.org/2000/svg" xmlns:xlink="http://www.w3.org/1999/xlink" version="1.1" x="0px" y="0px" viewBox="0 0 100 125" style="enable-background:new 0 0 100 100;" xml:space="preserve"><style type="text/css">
	.st0{fill:none;stroke:#000000;stroke-width:2;stroke-linecap:round;stroke-linejoin:round;stroke-miterlimit:10;}
</style><path d="M84.8,52.8L64.6,38.5L65,13.7c0-0.4-0.2-0.7-0.5-0.9c-0.3-0.2-0.7-0.1-1.1,0.1L43.5,27.7l-23.5-8c-0.4-0.1-0.8,0-1,0.2  c-0.3,0.3-0.4,0.7-0.2,1l7.9,23.5L11.9,64.3c-0.2,0.3-0.3,0.7-0.1,1.1c0.2,0.3,0.5,0.5,0.9,0.5c0,0,0,0,0,0l24.8-0.3l14.3,20.2  c0.2,0.3,0.5,0.4,0.8,0.4c0.1,0,0.1,0,0.2,0c0.4-0.1,0.7-0.3,0.8-0.7l7.4-23.7l23.7-7.3c0.4-0.1,0.6-0.4,0.7-0.8  C85.3,53.4,85.1,53.1,84.8,52.8z M59.8,60.2c-0.3,0.1-0.6,0.3-0.7,0.7l-6.9,22.2L38.8,64c-0.2-0.3-0.5-0.4-0.8-0.4c0,0,0,0,0,0  l-23.3,0.3l13.9-18.6c0.2-0.3,0.3-0.6,0.1-0.9l-7.5-22l22,7.5c0.3,0.1,0.7,0.1,0.9-0.1l18.7-13.9L62.6,39c0,0.3,0.2,0.6,0.4,0.8  l19,13.5L59.8,60.2z"/><path d="M59.2,25.7c0-0.4-0.2-0.7-0.5-0.9c-0.3-0.2-0.7-0.1-1.1,0.1l-12.8,9.6l-15.1-5.1c-0.4-0.1-0.8,0-1,0.2  c-0.3,0.3-0.4,0.7-0.2,1l5.1,15.2l-9.6,12.8c-0.2,0.3-0.3,0.7-0.1,1.1c0.2,0.3,0.5,0.5,0.9,0.5l16-0.2L49.9,73  c0.2,0.3,0.5,0.4,0.8,0.4c0.1,0,0.1,0,0.2,0c0.4-0.1,0.7-0.3,0.8-0.7l4.8-15.3l15.3-4.7c0.4-0.1,0.6-0.4,0.7-0.8  c0.1-0.4-0.1-0.8-0.4-1l-13.1-9.2L59.2,25.7z M69.2,51.4l-13.8,4.3c-0.3,0.1-0.6,0.3-0.7,0.7l-4.3,13.8L42,58.4  c-0.2-0.3-0.5-0.4-0.8-0.4c0,0,0,0,0,0l-14.5,0.2l8.7-11.6c0.2-0.3,0.3-0.6,0.1-0.9l-4.6-13.7l13.7,4.7c0.3,0.1,0.7,0.1,0.9-0.1  l11.6-8.7l-0.2,14.5c0,0.3,0.2,0.6,0.4,0.8L69.2,51.4z"/><text x="0" y="115" fill="#000000" font-size="5px" font-weight="bold" font-family="'Helvetica Neue', Helvetica, Arial-Unicode, Arial, Sans-serif">Created by Made Somewhere</text><text x="0" y="120" fill="#000000" font-size="5px" font-weight="bold" font-family="'Helvetica Neue', Helvetica, Arial-Unicode, Arial, Sans-serif">from the Noun Project</text></svg>