<svg xmlns="http://www.w3.org/2000/svg" xmlns:xlink="http://www.w3.org/1999/xlink" version="1.0" x="0px" y="0px" viewBox="0 0 32 40" enable-background="new 0 0 32 32" xml:space="preserve"><path d="M18,4.16V2h3c0.551,0,1-0.445,1-1c0-0.551-0.449-1-1-1H11c-0.555,0-1,0.449-1,1c0,0.555,0.445,1,1,1h3v2.16  C7.219,5.133,2,10.949,2,18c0,7.734,6.266,14,14,14c7.73,0,14-6.266,14-14C30,10.949,24.781,5.133,18,4.16z M23,20h-8  c-0.555,0-1-0.445-1-1V9c0-0.551,0.445-1,1-1c0.551,0,1,0.449,1,1v9h7c0.551,0,1,0.449,1,1C24,19.555,23.551,20,23,20z"/><text x="0" y="47" fill="#000000" font-size="5px" font-weight="bold" font-family="'Helvetica Neue', Helvetica, Arial-Unicode, Arial, Sans-serif">Created by Zlatko Najdenovski</text><text x="0" y="52" fill="#000000" font-size="5px" font-weight="bold" font-family="'Helvetica Neue', Helvetica, Arial-Unicode, Arial, Sans-serif">from the Noun Project</text></svg>